<?xml version="1.0" encoding="UTF-8" standalone="no"?>
<!-- Created with Inkscape (http://www.inkscape.org/) -->

<svg
   width="1920"
   height="1080"
   viewBox="0 0 1920 1080"
   version="1.1"
   id="svg1"
   inkscape:export-batch-path="/home/gbaldi/Projects/DistritoLibre/distrito_libre/public/assets"
   inkscape:export-batch-name=""
   inkscape:version="1.4 (e7c3feb100, 2024-10-09)"
   sodipodi:docname="sectors.svg"
   inkscape:export-filename="sectors_export.svg"
   inkscape:export-xdpi="96"
   inkscape:export-ydpi="96"
   xmlns:inkscape="http://www.inkscape.org/namespaces/inkscape"
   xmlns:sodipodi="http://sodipodi.sourceforge.net/DTD/sodipodi-0.dtd"
   xmlns="http://www.w3.org/2000/svg"
   xmlns:svg="http://www.w3.org/2000/svg">
  <sodipodi:namedview
     id="namedview1"
     pagecolor="#ffffff"
     bordercolor="#000000"
     borderopacity="0.25"
     inkscape:showpageshadow="2"
     inkscape:pageopacity="0.0"
     inkscape:pagecheckerboard="0"
     inkscape:deskcolor="#d1d1d1"
     inkscape:document-units="px"
     inkscape:zoom="0.415625"
     inkscape:cx="961.20301"
     inkscape:cy="538.94737"
     inkscape:window-width="669"
     inkscape:window-height="724"
     inkscape:window-x="686"
     inkscape:window-y="9"
     inkscape:window-maximized="1"
     inkscape:current-layer="svg1" />
  <defs
     id="defs1" />
  <path
     style="fill:#000000;stroke-width:0.910208"
     d="m 1836.7734,679.17383 c -19.3637,0.53441 -38.6606,2.34413 -57.9296,4.27539 -22.5423,2.64432 -45.2723,5.97225 -66.4922,14.39258 -29.2262,11.33185 -57.5149,24.92283 -86.5332,36.77148 -32.8204,13.42318 -66.0422,25.79219 -100.1075,35.72266 -20.0588,5.99833 -40.2848,11.31098 -61.4433,10.78125 -29.1502,0.68739 -58.335,-0.13924 -87.4531,1.48242 -30.715,2.45851 -61.1551,7.50047 -90.9532,15.43945 -37.2556,8.9476 -74.7302,17.0669 -112.8437,21.45117 0.3502,4.73588 0.7805,9.46569 1.1094,14.20313 2.193,18.62966 0.5602,37.47315 2.1679,56.10742 1.0345,6.65814 1.5154,13.61209 3.4258,20.10938 2.6065,8.86482 7.0031,17.31125 11.0742,25.55078 6.9691,13.62504 15.0969,26.68063 20.5957,40.99804 3.5526,10.51184 4.917,21.61118 6.9199,32.49412 0.6171,3.6472 1.3642,7.2669 2.0645,10.8965 h 634.6621 V 679.77344 c -6.0802,-0.37935 -12.1597,-0.81776 -18.2637,-0.59961 z"
     id="path19" />
  <path
     style="fill:#000000;stroke-width:0.910208"
     d="m 1747.4082,388.61914 c -10.3207,-0.15657 -20.6419,-0.0165 -30.9453,0.43164 -61.2156,2.63153 -122.6009,7.64263 -182.6856,20.0957 -38.2428,7.94156 -76.7338,15.76342 -112.8691,31.04883 -9.484,3.55754 -19.0038,7.38973 -28.9199,9.625 -10.0746,2.27101 -20.5318,2.75748 -30.8145,2.67578 -14.873,-0.36404 -29.6328,-1.17963 -44.3359,-3.68359 -15.9612,-2.71821 -31.6512,-7.15439 -47.2461,-11.40625 -5.2987,-1.57392 -10.6298,-3.04454 -15.8965,-4.72266 -21.9383,-6.99019 -43.5455,-16.01922 -66.7344,-17.96289 -4.1276,-0.28381 -8.2469,-0.96126 -12.3828,-0.85156 -3.7787,0.10022 -7.5042,0.9148 -11.2422,1.47656 -0.1347,0.0203 -0.2656,0.0596 -0.4004,0.0801 1.4691,20.19142 -0.2703,40.61986 -1.2695,60.78711 -2.217,41.75096 -3.7047,83.54061 -3.7187,125.35156 -0.4591,41.25554 2.8077,82.33063 6.7441,123.35157 2.6929,25.88663 4.9559,51.81378 7.0137,77.75781 37.2252,-4.32572 73.8292,-12.26879 110.2226,-21.01172 30.6428,-8.16884 61.9529,-13.28458 93.5332,-15.84961 29.4348,-1.69685 58.9396,-0.83339 88.4082,-1.5332 19.6605,0.55653 38.3884,-4.48922 57.0098,-10.07618 33.5413,-9.7757 66.2503,-21.95433 98.5625,-35.17773 29.0966,-11.92528 57.5018,-25.48794 86.8125,-36.88281 22.5458,-8.95862 46.6663,-12.5936 70.6211,-15.41992 19.764,-2.00871 39.5618,-3.81194 59.4238,-4.38477 6.263,-0.2245 12.499,0.23445 18.7383,0.59961 V 400.79883 c -5.0765,-1.08232 -10.1435,-2.21522 -15.2519,-3.12891 -30.4572,-5.4475 -61.4148,-8.58107 -92.377,-9.05078 z"
     id="path15" />
  <path
     style="fill:#000000;stroke-width:0.910208"
     d="m 1311.8945,60.150391 c -12.0903,16.826468 -23.3942,34.236465 -34.8691,51.474609 -13.857,21.47717 -29.3922,41.81167 -44.6621,62.28906 -3.7899,5.08251 -7.7851,10.01666 -11.3867,15.23438 -4.1143,5.96058 -7.8304,12.18633 -11.7461,18.27929 -15.685,24.4454 -28.047,50.89737 -38.0293,78.13282 -2.2523,6.14494 -4.6529,12.25385 -6.4297,18.55273 -1.7056,6.04677 -2.6653,12.27824 -3.9981,18.41797 -2.7028,15.51205 -4.5821,31.4263 -3.9589,47.2168 0.383,9.70582 2.4982,19.35465 4.1953,28.92773 3.7768,-0.59406 7.5456,-1.38736 11.3652,-1.5039 5.1836,-0.15818 10.3607,0.48784 15.541,0.73242 24.7817,1.88017 47.8652,11.39838 71.2793,18.86132 5.0285,1.60278 10.1228,2.99461 15.1836,4.49219 15.1683,4.13261 30.4332,8.44556 45.959,11.08008 13.6507,2.31635 27.4209,3.01586 41.2285,3.32031 9.2174,0.0868 18.6022,-0.35728 27.625,-2.44531 8.8087,-2.03848 17.367,-5.61723 25.7949,-8.78516 36.9446,-15.59312 76.2774,-23.64696 115.3653,-31.77148 60.974,-12.65058 123.2642,-17.74429 185.3867,-20.43164 10.5776,-0.45597 21.1721,-0.59966 31.7676,-0.44141 31.7865,0.47475 63.5689,3.66076 94.8398,9.24024 4.2504,0.75837 8.4673,1.69287 12.6914,2.58984 V 60.150391 Z"
     id="path13" />
  <path
     style="fill:#000000;stroke-width:0.910208"
     d="m 665.12695,767.64844 c -38.65265,0.0392 -77.19752,2.36604 -115.65039,6.31836 -12.31365,1.24001 -24.56631,2.98473 -36.84765,4.50976 0.15249,0.32111 0.3273,0.6314 0.47851,0.95313 1.84447,3.9245 3.42455,7.96717 5.13672,11.95117 7.68208,19.63683 14.25795,39.78572 19.20898,60.28906 3.76284,15.08136 4.56443,30.5635 3.48829,46.00586 -1.44968,18.59586 -9.70735,35.58029 -17.79493,52.07813 -7.0754,14.08646 -15.12656,27.6482 -23.18554,41.18554 -5.50228,9.34325 -11.10851,18.62135 -16.76563,27.87105 -0.22202,0.3443 -0.42923,0.6946 -0.65039,1.0391 h 720.69138 c -0.4882,-2.6175 -1.0431,-5.2209 -1.4883,-7.8476 -1.8207,-9.8951 -3.0609,-19.98742 -6.1113,-29.58989 -5.1314,-13.86935 -13.4799,-26.26542 -19.9531,-39.51172 -4.723,-9.62392 -9.4736,-19.29828 -12.4707,-29.64258 -2.0697,-7.1433 -2.602,-14.76248 -3.7031,-22.08008 -1.4719,-18.72575 -0.1588,-37.60033 -2.1836,-56.31835 -0.3098,-4.46523 -0.716,-8.92293 -1.045,-13.38672 -2.4044,0.28033 -4.8042,0.60402 -7.2128,0.8457 -38.9613,3.90934 -78.1207,4.81928 -117.2286,6.14062 -7.8921,0.12154 -15.7826,0.39314 -23.6757,0.36524 -34.82397,-0.12318 -69.71597,-3.1447 -104.09965,-8.52344 -7.35793,-1.36986 -14.7701,-2.47672 -22.07422,-4.10937 -6.24357,-1.39559 -12.36902,-3.27745 -18.53906,-4.96875 -26.39289,-7.23467 -52.5117,-15.40027 -78.69336,-23.35547 -38.96571,-11.03464 -78.86362,-20.65576 -119.63086,-20.21875 z"
     id="path20" />
  <path
     style="fill:#000000;stroke-width:0.910208"
     d="m 1146.5156,418.73633 c -11.1962,2.4514 -22.3126,5.27205 -33.332,8.42383 -31.2347,9.04784 -62.3496,18.50427 -93.6719,27.2539 -39.01306,11.43765 -77.86912,24.08709 -118.10154,30.58203 -24.5416,3.65584 -48.5939,6.75874 -73.4961,6.80664 -7.92328,0.0152 -15.83813,-0.58056 -23.74804,-1.04101 -27.77774,-1.61698 -25.19979,-1.73621 -52.9336,-5.04297 -9.46387,-1.33783 -18.95612,-2.48239 -28.39062,-4.01367 -8.86186,-1.43833 -17.65462,-3.26877 -26.48438,-4.89258 -44.86821,-8.25135 -89.7394,-16.56638 -134.87304,-23.26172 -54.20336,-8.11492 -108.5492,-15.18097 -162.86915,-22.44922 4.66627,15.21018 10.45837,30.06944 16.41993,44.83789 7.42256,16.22029 10.33941,33.79133 13.55859,51.17578 3.54847,19.55478 7.97277,38.93107 12.55078,58.26563 5.75913,23.86215 11.39468,47.75959 18.01367,71.40039 6.19661,23.5658 13.93602,45.51736 24.72657,67.36328 6.44785,12.99224 13.76455,25.56765 20.62109,38.36719 14.41689,-1.85704 28.81765,-3.84355 43.28125,-5.30274 39.00667,-4.01961 78.10899,-6.34524 117.31836,-6.40234 42.33349,-0.46183 83.76718,9.42017 124.23828,20.85547 26.16848,7.94021 52.26508,16.11488 78.64258,23.3418 6.11159,1.67446 12.17865,3.53943 18.36328,4.91992 6.87264,1.53406 13.85144,2.54423 20.77734,3.8164 33.5246,5.21999 67.54427,8.13722 101.49415,8.24805 7.6522,0.025 15.3039,-0.24622 22.9551,-0.36914 41.2272,-0.88055 82.3736,-2.94924 123.373,-7.18555 -2.0582,-25.99414 -4.3237,-51.97155 -7.0215,-77.9082 -3.9866,-41.55788 -7.2796,-83.17213 -6.8222,-124.9668 0.022,-42.08655 1.5028,-84.15158 3.7402,-126.17773 0.4988,-10.06489 1.0653,-20.12678 1.4844,-30.19531 0.3644,-8.72987 0.6256,-17.64772 0.1855,-26.44922 z"
     id="path16" />
  <path
     style="fill:#000000;stroke-width:0.910208"
     d="m 472.78906,60.150391 c -4.36201,7.899874 -8.55872,15.894626 -12.68945,23.898437 -19.02162,37.744072 -38.22563,75.420392 -54.96094,114.246092 -12.00009,27.51596 -18.65732,57.22472 -21.87109,87.01953 -0.6314,5.85378 -0.89885,11.74073 -1.34766,17.61133 -2.32708,34.53053 3.21757,69.01464 10.21289,102.72656 0.48858,2.64419 1.22057,5.21512 1.8125,7.82813 56.70471,7.61609 113.44634,14.94512 170.03321,23.41406 45.31448,6.72204 90.36412,15.06721 135.4121,23.35156 8.83838,1.62538 17.64124,3.45673 26.51172,4.89649 9.19888,1.49306 18.45539,2.59899 27.6836,3.89844 27.31798,3.2531 24.58163,3.35538 51.76953,4.92187 7.75874,0.44703 15.52139,1.03327 23.29297,1.01367 23.62349,-0.0596 46.974,-3.13657 70.26953,-6.63672 39.46225,-6.42444 77.57886,-18.86561 115.85543,-30.08789 31.3392,-8.75617 62.4734,-18.21421 93.7246,-27.26953 11.8962,-3.41951 23.9074,-6.42969 36.0098,-9.01367 -1.8574,-10.77805 -4.1251,-21.5451 -4.5312,-32.50391 -0.6268,-16.91476 1.4297,-33.94522 4.3496,-50.55664 1.5114,-6.77203 2.644,-13.64043 4.5351,-20.3164 1.8365,-6.48323 4.3023,-12.77177 6.6289,-19.09571 10.4105,-28.29686 23.2775,-55.77859 39.5821,-81.1875 4.1388,-6.41425 8.0792,-12.96008 12.416,-19.24218 3.5951,-5.20789 7.5822,-10.13395 11.3652,-15.20703 15.094,-20.24139 30.4587,-40.33612 44.1524,-61.56836 9.372,-14.079002 18.6787,-28.236613 28.3339,-42.140629 z"
     id="path11" />
  <path
     style="fill:#000000;stroke-width:0.910208"
     d="M 64.962891,752.41211 V 1019.8496 H 462.69336 c 1.97723,-3.3122 4.03343,-6.5785 6.13476,-9.8281 5.62262,-9.1921 11.19216,-18.41171 16.66016,-27.69728 7.82795,-13.1485 15.65784,-26.31576 22.54102,-39.99219 7.14908,-14.53659 14.71279,-29.49748 16.11523,-45.87891 1.05119,-13.70519 0.23629,-27.46223 -3.06836,-40.8496 -4.67871,-19.59532 -11.04813,-38.82252 -18.3164,-57.59961 -2.49644,-5.868 -5.20312,-11.63205 -8.03125,-17.33789 -25.52303,3.54332 -50.95322,7.70011 -76.11133,13.40625 -43.15224,9.30009 -86.07588,20.12214 -130.00781,25.24414 -7.39966,0.74932 -14.77607,1.7864 -22.19922,2.24804 -6.00172,0.37324 -12.02579,0.27536 -18.03907,0.25586 -26.69576,-0.0866 -53.46699,-2.29096 -79.60156,-7.90234 -6.49818,-1.59244 -13.09581,-2.82197 -19.49414,-4.77735 -5.06089,-1.54663 -9.91856,-3.69832 -14.81445,-5.70703 -14.76811,-6.05914 -29.70935,-13.01809 -42.597659,-22.5957 -2.883434,-2.14274 -5.278683,-4.8734 -7.917969,-7.31055 -6.702167,-6.65621 -13.025508,-13.73977 -18.982421,-21.11523 z"
     id="path21" />
  <path
     style="fill:#000000;stroke-width:0.910208"
     d="m 243.98633,414.11133 c -5.73939,0.003 -11.48298,0.14187 -17.22266,0.39062 -11.47936,0.49751 -22.94095,1.43739 -34.31445,2.62696 -8.06388,1.00179 -16.16319,1.74992 -24.19141,3.00586 -33.91489,5.30568 -66.91406,14.7957 -99.179685,26.36914 -1.373465,0.48305 -2.740033,1.00725 -4.115234,1.49023 v 276.70313 c 1.153815,1.06529 2.285683,2.3574 3.332031,4.01367 7.634691,12.085 17.330206,22.84142 27.492187,32.83984 2.498705,2.30288 4.758911,4.89459 7.496091,6.9082 3.3984,2.50003 7.15099,4.48427 10.82032,6.56641 11.2513,6.38452 14.85074,7.98629 27.0371,12.94727 4.69099,1.90966 9.33665,3.97982 14.1836,5.44922 5.70324,1.72897 11.59761,2.75044 17.39648,4.125 24.94156,5.30988 50.48834,7.38209 75.95703,7.43359 5.83054,0.0118 11.67132,0.11221 17.49024,-0.25586 6.93004,-0.43836 13.81234,-1.44161 20.71875,-2.16211 43.31051,-5.09929 85.63314,-15.78128 128.18164,-24.95508 23.6239,-5.35624 47.47403,-9.44004 71.42187,-12.88867 -5.89251,-11.0499 -11.99145,-21.99911 -17.71484,-33.13477 -1.97434,-4.02264 -4.0671,-7.99009 -5.92383,-12.06836 -8.52043,-18.71492 -14.22833,-38.48884 -19.91211,-58.19726 -6.67096,-23.86142 -12.38068,-47.97187 -18.18359,-72.05664 -4.64084,-19.60458 -9.12441,-39.25251 -12.72266,-59.08008 -3.01361,-16.27694 -5.62374,-32.7603 -12.61523,-47.9375 -7.11157,-17.61761 -14.10869,-35.32316 -19.18945,-53.61719 -10.63371,-1.43944 -21.27651,-2.80836 -31.9043,-4.29297 -28.89785,-3.80684 -57.99629,-8.32028 -87.14258,-9.80273 -5.72074,-0.29097 -11.45593,-0.42315 -17.19531,-0.41992 z"
     id="path17" />
  <path
     style="fill:#000000;stroke-width:0.910208"
     d="M 64.962891,60.150391 V 430.11523 c 32.593964,-11.60349 65.915669,-21.15276 100.144529,-26.52539 8.38151,-1.31558 16.83595,-2.1143 25.25391,-3.17187 23.47647,-2.45701 47.312,-3.91081 70.92969,-2.72852 29.85636,1.49459 59.6308,6.04953 89.23242,9.94727 8.52177,1.18991 17.0563,2.2835 25.58203,3.44336 -0.13278,-0.67726 -0.33876,-1.33246 -0.46485,-2.01172 -7.2869,-35.26795 -13.00106,-71.32394 -10.51171,-107.44141 0.4865,-6.2173 0.78499,-12.45256 1.45898,-18.65234 3.40143,-31.28835 10.51377,-62.44553 23.08594,-91.34961 16.90926,-39.17534 36.24399,-77.2215 55.46094,-115.304688 2.79358,-5.407246 5.67224,-10.786896 8.53906,-16.169921 z"
     id="path0"
     inkscape:label="path0"
     onclick="p" />
</svg>
