<svg width="1920" height="1080" viewBox="0 0 1920 1080" version="1.1" id="svg1" xmlns="http://www.w3.org/2000/svg" xmlns:svg="http://www.w3.org/2000/svg"><path style="fill:#000000;stroke-width:0.910208" d="M 64.962891,60.150391 V 430.11523 c 32.593964,-11.60349 65.915669,-21.15276 100.144529,-26.52539 8.38151,-1.31558 16.83595,-2.1143 25.25391,-3.17187 23.47647,-2.45701 47.312,-3.91081 70.92969,-2.72852 29.85636,1.49459 59.6308,6.04953 89.23242,9.94727 8.52177,1.18991 17.0563,2.2835 25.58203,3.44336 -0.13278,-0.67726 -0.33876,-1.33246 -0.46485,-2.01172 -7.2869,-35.26795 -13.00106,-71.32394 -10.51171,-107.44141 0.4865,-6.2173 0.78499,-12.45256 1.45898,-18.65234 3.40143,-31.28835 10.51377,-62.44553 23.08594,-91.34961 16.90926,-39.17534 36.24399,-77.2215 55.46094,-115.304688 2.79358,-5.407246 5.67224,-10.786896 8.53906,-16.169921 z" id="path0" onclick="p"></path></svg>