<svg width="1920" height="1080" viewBox="0 0 1920 1080" version="1.1" id="svg1" xmlns="http://www.w3.org/2000/svg" xmlns:svg="http://www.w3.org/2000/svg"><path style="fill:#000000;stroke-width:0.910208" d="m 472.78906,60.150391 c -4.36201,7.899874 -8.55872,15.894626 -12.68945,23.898437 -19.02162,37.744072 -38.22563,75.420392 -54.96094,114.246092 -12.00009,27.51596 -18.65732,57.22472 -21.87109,87.01953 -0.6314,5.85378 -0.89885,11.74073 -1.34766,17.61133 -2.32708,34.53053 3.21757,69.01464 10.21289,102.72656 0.48858,2.64419 1.22057,5.21512 1.8125,7.82813 56.70471,7.61609 113.44634,14.94512 170.03321,23.41406 45.31448,6.72204 90.36412,15.06721 135.4121,23.35156 8.83838,1.62538 17.64124,3.45673 26.51172,4.89649 9.19888,1.49306 18.45539,2.59899 27.6836,3.89844 27.31798,3.2531 24.58163,3.35538 51.76953,4.92187 7.75874,0.44703 15.52139,1.03327 23.29297,1.01367 23.62349,-0.0596 46.974,-3.13657 70.26953,-6.63672 39.46225,-6.42444 77.57886,-18.86561 115.85543,-30.08789 31.3392,-8.75617 62.4734,-18.21421 93.7246,-27.26953 11.8962,-3.41951 23.9074,-6.42969 36.0098,-9.01367 -1.8574,-10.77805 -4.1251,-21.5451 -4.5312,-32.50391 -0.6268,-16.91476 1.4297,-33.94522 4.3496,-50.55664 1.5114,-6.77203 2.644,-13.64043 4.5351,-20.3164 1.8365,-6.48323 4.3023,-12.77177 6.6289,-19.09571 10.4105,-28.29686 23.2775,-55.77859 39.5821,-81.1875 4.1388,-6.41425 8.0792,-12.96008 12.416,-19.24218 3.5951,-5.20789 7.5822,-10.13395 11.3652,-15.20703 15.094,-20.24139 30.4587,-40.33612 44.1524,-61.56836 9.372,-14.079002 18.6787,-28.236613 28.3339,-42.140629 z" id="path11"></path></svg>