<svg width="1920" height="1080" viewBox="0 0 1920 1080" version="1.1" id="svg1" xmlns="http://www.w3.org/2000/svg" xmlns:svg="http://www.w3.org/2000/svg"><path style="fill:#000000;stroke-width:0.910208" d="m 1836.7734,679.17383 c -19.3637,0.53441 -38.6606,2.34413 -57.9296,4.27539 -22.5423,2.64432 -45.2723,5.97225 -66.4922,14.39258 -29.2262,11.33185 -57.5149,24.92283 -86.5332,36.77148 -32.8204,13.42318 -66.0422,25.79219 -100.1075,35.72266 -20.0588,5.99833 -40.2848,11.31098 -61.4433,10.78125 -29.1502,0.68739 -58.335,-0.13924 -87.4531,1.48242 -30.715,2.45851 -61.1551,7.50047 -90.9532,15.43945 -37.2556,8.9476 -74.7302,17.0669 -112.8437,21.45117 0.3502,4.73588 0.7805,9.46569 1.1094,14.20313 2.193,18.62966 0.5602,37.47315 2.1679,56.10742 1.0345,6.65814 1.5154,13.61209 3.4258,20.10938 2.6065,8.86482 7.0031,17.31125 11.0742,25.55078 6.9691,13.62504 15.0969,26.68063 20.5957,40.99804 3.5526,10.51184 4.917,21.61118 6.9199,32.49412 0.6171,3.6472 1.3642,7.2669 2.0645,10.8965 h 634.6621 V 679.77344 c -6.0802,-0.37935 -12.1597,-0.81776 -18.2637,-0.59961 z" id="path19"></path></svg>
