<svg width="1920" height="1080" viewBox="0 0 1920 1080" version="1.1" id="svg1" xmlns="http://www.w3.org/2000/svg" xmlns:svg="http://www.w3.org/2000/svg"><path style="fill:#000000;stroke-width:0.910208" d="m 1747.4082,388.61914 c -10.3207,-0.15657 -20.6419,-0.0165 -30.9453,0.43164 -61.2156,2.63153 -122.6009,7.64263 -182.6856,20.0957 -38.2428,7.94156 -76.7338,15.76342 -112.8691,31.04883 -9.484,3.55754 -19.0038,7.38973 -28.9199,9.625 -10.0746,2.27101 -20.5318,2.75748 -30.8145,2.67578 -14.873,-0.36404 -29.6328,-1.17963 -44.3359,-3.68359 -15.9612,-2.71821 -31.6512,-7.15439 -47.2461,-11.40625 -5.2987,-1.57392 -10.6298,-3.04454 -15.8965,-4.72266 -21.9383,-6.99019 -43.5455,-16.01922 -66.7344,-17.96289 -4.1276,-0.28381 -8.2469,-0.96126 -12.3828,-0.85156 -3.7787,0.10022 -7.5042,0.9148 -11.2422,1.47656 -0.1347,0.0203 -0.2656,0.0596 -0.4004,0.0801 1.4691,20.19142 -0.2703,40.61986 -1.2695,60.78711 -2.217,41.75096 -3.7047,83.54061 -3.7187,125.35156 -0.4591,41.25554 2.8077,82.33063 6.7441,123.35157 2.6929,25.88663 4.9559,51.81378 7.0137,77.75781 37.2252,-4.32572 73.8292,-12.26879 110.2226,-21.01172 30.6428,-8.16884 61.9529,-13.28458 93.5332,-15.84961 29.4348,-1.69685 58.9396,-0.83339 88.4082,-1.5332 19.6605,0.55653 38.3884,-4.48922 57.0098,-10.07618 33.5413,-9.7757 66.2503,-21.95433 98.5625,-35.17773 29.0966,-11.92528 57.5018,-25.48794 86.8125,-36.88281 22.5458,-8.95862 46.6663,-12.5936 70.6211,-15.41992 19.764,-2.00871 39.5618,-3.81194 59.4238,-4.38477 6.263,-0.2245 12.499,0.23445 18.7383,0.59961 V 400.79883 c -5.0765,-1.08232 -10.1435,-2.21522 -15.2519,-3.12891 -30.4572,-5.4475 -61.4148,-8.58107 -92.377,-9.05078 z" id="path15"></path></svg>