<svg width="1920" height="1080" viewBox="0 0 1920 1080" version="1.1" id="svg1" xmlns="http://www.w3.org/2000/svg" xmlns:svg="http://www.w3.org/2000/svg"><path style="fill:#000000;stroke-width:0.910208" d="m 243.98633,414.11133 c -5.73939,0.003 -11.48298,0.14187 -17.22266,0.39062 -11.47936,0.49751 -22.94095,1.43739 -34.31445,2.62696 -8.06388,1.00179 -16.16319,1.74992 -24.19141,3.00586 -33.91489,5.30568 -66.91406,14.7957 -99.179685,26.36914 -1.373465,0.48305 -2.740033,1.00725 -4.115234,1.49023 v 276.70313 c 1.153815,1.06529 2.285683,2.3574 3.332031,4.01367 7.634691,12.085 17.330206,22.84142 27.492187,32.83984 2.498705,2.30288 4.758911,4.89459 7.496091,6.9082 3.3984,2.50003 7.15099,4.48427 10.82032,6.56641 11.2513,6.38452 14.85074,7.98629 27.0371,12.94727 4.69099,1.90966 9.33665,3.97982 14.1836,5.44922 5.70324,1.72897 11.59761,2.75044 17.39648,4.125 24.94156,5.30988 50.48834,7.38209 75.95703,7.43359 5.83054,0.0118 11.67132,0.11221 17.49024,-0.25586 6.93004,-0.43836 13.81234,-1.44161 20.71875,-2.16211 43.31051,-5.09929 85.63314,-15.78128 128.18164,-24.95508 23.6239,-5.35624 47.47403,-9.44004 71.42187,-12.88867 -5.89251,-11.0499 -11.99145,-21.99911 -17.71484,-33.13477 -1.97434,-4.02264 -4.0671,-7.99009 -5.92383,-12.06836 -8.52043,-18.71492 -14.22833,-38.48884 -19.91211,-58.19726 -6.67096,-23.86142 -12.38068,-47.97187 -18.18359,-72.05664 -4.64084,-19.60458 -9.12441,-39.25251 -12.72266,-59.08008 -3.01361,-16.27694 -5.62374,-32.7603 -12.61523,-47.9375 -7.11157,-17.61761 -14.10869,-35.32316 -19.18945,-53.61719 -10.63371,-1.43944 -21.27651,-2.80836 -31.9043,-4.29297 -28.89785,-3.80684 -57.99629,-8.32028 -87.14258,-9.80273 -5.72074,-0.29097 -11.45593,-0.42315 -17.19531,-0.41992 z" id="path17"></path></svg>