<svg width="1920" height="1080" viewBox="0 0 1920 1080" version="1.1" id="svg1" xmlns="http://www.w3.org/2000/svg" xmlns:svg="http://www.w3.org/2000/svg"><path style="fill:#000000;stroke-width:0.910208" d="m 1146.5156,418.73633 c -11.1962,2.4514 -22.3126,5.27205 -33.332,8.42383 -31.2347,9.04784 -62.3496,18.50427 -93.6719,27.2539 -39.01306,11.43765 -77.86912,24.08709 -118.10154,30.58203 -24.5416,3.65584 -48.5939,6.75874 -73.4961,6.80664 -7.92328,0.0152 -15.83813,-0.58056 -23.74804,-1.04101 -27.77774,-1.61698 -25.19979,-1.73621 -52.9336,-5.04297 -9.46387,-1.33783 -18.95612,-2.48239 -28.39062,-4.01367 -8.86186,-1.43833 -17.65462,-3.26877 -26.48438,-4.89258 -44.86821,-8.25135 -89.7394,-16.56638 -134.87304,-23.26172 -54.20336,-8.11492 -108.5492,-15.18097 -162.86915,-22.44922 4.66627,15.21018 10.45837,30.06944 16.41993,44.83789 7.42256,16.22029 10.33941,33.79133 13.55859,51.17578 3.54847,19.55478 7.97277,38.93107 12.55078,58.26563 5.75913,23.86215 11.39468,47.75959 18.01367,71.40039 6.19661,23.5658 13.93602,45.51736 24.72657,67.36328 6.44785,12.99224 13.76455,25.56765 20.62109,38.36719 14.41689,-1.85704 28.81765,-3.84355 43.28125,-5.30274 39.00667,-4.01961 78.10899,-6.34524 117.31836,-6.40234 42.33349,-0.46183 83.76718,9.42017 124.23828,20.85547 26.16848,7.94021 52.26508,16.11488 78.64258,23.3418 6.11159,1.67446 12.17865,3.53943 18.36328,4.91992 6.87264,1.53406 13.85144,2.54423 20.77734,3.8164 33.5246,5.21999 67.54427,8.13722 101.49415,8.24805 7.6522,0.025 15.3039,-0.24622 22.9551,-0.36914 41.2272,-0.88055 82.3736,-2.94924 123.373,-7.18555 -2.0582,-25.99414 -4.3237,-51.97155 -7.0215,-77.9082 -3.9866,-41.55788 -7.2796,-83.17213 -6.8222,-124.9668 0.022,-42.08655 1.5028,-84.15158 3.7402,-126.17773 0.4988,-10.06489 1.0653,-20.12678 1.4844,-30.19531 0.3644,-8.72987 0.6256,-17.64772 0.1855,-26.44922 z" id="path16"></path></svg>