<svg width="1920" height="1080" viewBox="0 0 1920 1080" version="1.1" id="svg1" xmlns="http://www.w3.org/2000/svg" xmlns:svg="http://www.w3.org/2000/svg"><path style="fill:#000000;stroke-width:0.910208" d="m 1311.8945,60.150391 c -12.0903,16.826468 -23.3942,34.236465 -34.8691,51.474609 -13.857,21.47717 -29.3922,41.81167 -44.6621,62.28906 -3.7899,5.08251 -7.7851,10.01666 -11.3867,15.23438 -4.1143,5.96058 -7.8304,12.18633 -11.7461,18.27929 -15.685,24.4454 -28.047,50.89737 -38.0293,78.13282 -2.2523,6.14494 -4.6529,12.25385 -6.4297,18.55273 -1.7056,6.04677 -2.6653,12.27824 -3.9981,18.41797 -2.7028,15.51205 -4.5821,31.4263 -3.9589,47.2168 0.383,9.70582 2.4982,19.35465 4.1953,28.92773 3.7768,-0.59406 7.5456,-1.38736 11.3652,-1.5039 5.1836,-0.15818 10.3607,0.48784 15.541,0.73242 24.7817,1.88017 47.8652,11.39838 71.2793,18.86132 5.0285,1.60278 10.1228,2.99461 15.1836,4.49219 15.1683,4.13261 30.4332,8.44556 45.959,11.08008 13.6507,2.31635 27.4209,3.01586 41.2285,3.32031 9.2174,0.0868 18.6022,-0.35728 27.625,-2.44531 8.8087,-2.03848 17.367,-5.61723 25.7949,-8.78516 36.9446,-15.59312 76.2774,-23.64696 115.3653,-31.77148 60.974,-12.65058 123.2642,-17.74429 185.3867,-20.43164 10.5776,-0.45597 21.1721,-0.59966 31.7676,-0.44141 31.7865,0.47475 63.5689,3.66076 94.8398,9.24024 4.2504,0.75837 8.4673,1.69287 12.6914,2.58984 V 60.150391 Z" id="path13"></path></svg>