<svg width="1920" height="1080" viewBox="0 0 1920 1080" version="1.1" id="svg1" xmlns="http://www.w3.org/2000/svg" xmlns:svg="http://www.w3.org/2000/svg"><path style="fill:#000000;stroke-width:0.910208" d="M 64.962891,752.41211 V 1019.8496 H 462.69336 c 1.97723,-3.3122 4.03343,-6.5785 6.13476,-9.8281 5.62262,-9.1921 11.19216,-18.41171 16.66016,-27.69728 7.82795,-13.1485 15.65784,-26.31576 22.54102,-39.99219 7.14908,-14.53659 14.71279,-29.49748 16.11523,-45.87891 1.05119,-13.70519 0.23629,-27.46223 -3.06836,-40.8496 -4.67871,-19.59532 -11.04813,-38.82252 -18.3164,-57.59961 -2.49644,-5.868 -5.20312,-11.63205 -8.03125,-17.33789 -25.52303,3.54332 -50.95322,7.70011 -76.11133,13.40625 -43.15224,9.30009 -86.07588,20.12214 -130.00781,25.24414 -7.39966,0.74932 -14.77607,1.7864 -22.19922,2.24804 -6.00172,0.37324 -12.02579,0.27536 -18.03907,0.25586 -26.69576,-0.0866 -53.46699,-2.29096 -79.60156,-7.90234 -6.49818,-1.59244 -13.09581,-2.82197 -19.49414,-4.77735 -5.06089,-1.54663 -9.91856,-3.69832 -14.81445,-5.70703 -14.76811,-6.05914 -29.70935,-13.01809 -42.597659,-22.5957 -2.883434,-2.14274 -5.278683,-4.8734 -7.917969,-7.31055 -6.702167,-6.65621 -13.025508,-13.73977 -18.982421,-21.11523 z" id="path21"></path></svg>