<svg width="1920" height="1080" viewBox="0 0 1920 1080" version="1.1" id="svg1" xmlns="http://www.w3.org/2000/svg" xmlns:svg="http://www.w3.org/2000/svg"><path style="fill:#000000;stroke-width:0.910208" d="m 665.12695,767.64844 c -38.65265,0.0392 -77.19752,2.36604 -115.65039,6.31836 -12.31365,1.24001 -24.56631,2.98473 -36.84765,4.50976 0.15249,0.32111 0.3273,0.6314 0.47851,0.95313 1.84447,3.9245 3.42455,7.96717 5.13672,11.95117 7.68208,19.63683 14.25795,39.78572 19.20898,60.28906 3.76284,15.08136 4.56443,30.5635 3.48829,46.00586 -1.44968,18.59586 -9.70735,35.58029 -17.79493,52.07813 -7.0754,14.08646 -15.12656,27.6482 -23.18554,41.18554 -5.50228,9.34325 -11.10851,18.62135 -16.76563,27.87105 -0.22202,0.3443 -0.42923,0.6946 -0.65039,1.0391 h 720.69138 c -0.4882,-2.6175 -1.0431,-5.2209 -1.4883,-7.8476 -1.8207,-9.8951 -3.0609,-19.98742 -6.1113,-29.58989 -5.1314,-13.86935 -13.4799,-26.26542 -19.9531,-39.51172 -4.723,-9.62392 -9.4736,-19.29828 -12.4707,-29.64258 -2.0697,-7.1433 -2.602,-14.76248 -3.7031,-22.08008 -1.4719,-18.72575 -0.1588,-37.60033 -2.1836,-56.31835 -0.3098,-4.46523 -0.716,-8.92293 -1.045,-13.38672 -2.4044,0.28033 -4.8042,0.60402 -7.2128,0.8457 -38.9613,3.90934 -78.1207,4.81928 -117.2286,6.14062 -7.8921,0.12154 -15.7826,0.39314 -23.6757,0.36524 -34.82397,-0.12318 -69.71597,-3.1447 -104.09965,-8.52344 -7.35793,-1.36986 -14.7701,-2.47672 -22.07422,-4.10937 -6.24357,-1.39559 -12.36902,-3.27745 -18.53906,-4.96875 -26.39289,-7.23467 -52.5117,-15.40027 -78.69336,-23.35547 -38.96571,-11.03464 -78.86362,-20.65576 -119.63086,-20.21875 z" id="path20"></path></svg>